<svg width="200" height="150" viewBox="0 0 200 150" fill="none" xmlns="http://www.w3.org/2000/svg">
<path d="M125.078 40.0652H136.823C137.09 40.0652 137.355 40.1178 137.602 40.2201C137.849 40.3224 138.073 40.4723 138.262 40.6612C138.451 40.8502 138.601 41.0745 138.703 41.3214C138.805 41.5683 138.858 41.8329 138.858 42.1002V114.65C138.858 115.19 138.644 115.708 138.262 116.089C137.88 116.471 137.363 116.685 136.823 116.685H125.078V40.0652Z" fill="#231F20"/>
<path d="M136.823 116.935H125.078C125.012 116.934 124.949 116.907 124.903 116.861C124.856 116.814 124.829 116.751 124.828 116.685V40.0652C124.829 39.9993 124.856 39.9364 124.903 39.8898C124.949 39.8432 125.012 39.8165 125.078 39.8152H136.823C137.429 39.8165 138.009 40.0577 138.437 40.4859C138.866 40.9141 139.107 41.4946 139.108 42.1002V114.65C139.107 115.256 138.866 115.836 138.437 116.264C138.009 116.693 137.429 116.934 136.823 116.935ZM125.323 116.435H136.823C137.296 116.434 137.749 116.245 138.084 115.911C138.418 115.576 138.607 115.123 138.608 114.65V42.1002C138.608 41.6268 138.42 41.1727 138.085 40.838C137.751 40.5032 137.297 40.3152 136.823 40.3152H125.323V116.435Z" fill="#231F20"/>
<path d="M81.7033 38.2751L76.6733 40.6251L79.6533 115.145H85.0683L81.7033 38.2751Z" fill="#231F20"/>
<path d="M85.0682 115.395H79.6532C79.5886 115.395 79.5265 115.37 79.4799 115.325C79.4333 115.281 79.4058 115.22 79.4032 115.155L76.4032 40.6551C76.4005 40.6064 76.4124 40.5581 76.4374 40.5162C76.4623 40.4743 76.4991 40.4409 76.5432 40.4201L81.5782 38.0701C81.6146 38.0516 81.6549 38.042 81.6957 38.042C81.7365 38.042 81.7768 38.0516 81.8132 38.0701C81.8496 38.0905 81.8799 38.1203 81.901 38.1563C81.9221 38.1923 81.9332 38.2333 81.9332 38.2751L85.2982 115.145C85.3007 115.179 85.2957 115.213 85.2836 115.245C85.2715 115.277 85.2526 115.306 85.2282 115.33C85.1848 115.371 85.1278 115.394 85.0682 115.395ZM79.8932 114.895H84.8082L81.4732 38.6851L76.9282 40.8051L79.8932 114.895Z" fill="#231F20"/>
<path d="M128.588 114.815C128.555 115.865 128.19 116.878 127.545 117.707C126.9 118.536 126.008 119.14 124.998 119.43C111.712 123.123 97.6698 123.123 84.3834 119.43C83.3737 119.14 82.4821 118.536 81.837 117.707C81.1919 116.878 80.8265 115.865 80.7934 114.815L78.4834 40.065C78.4446 38.9365 78.7936 37.8287 79.4723 36.9262C80.151 36.0237 81.1184 35.381 82.2134 35.105C89.5737 33.3797 97.1138 32.5404 104.673 32.605C112.235 32.5405 119.776 33.3797 127.138 35.105C128.235 35.3797 129.205 36.0216 129.886 36.924C130.568 37.8264 130.92 38.9349 130.883 40.065L128.588 114.815Z" fill="white"/>
<path d="M104.713 122.45C97.8173 122.489 90.9501 121.558 84.3132 119.685C83.2528 119.381 82.3163 118.747 81.6388 117.877C80.9613 117.006 80.5777 115.943 80.5432 114.84L78.2132 40.075C78.1782 38.8884 78.549 37.7253 79.2645 36.778C79.98 35.8307 80.9973 35.1559 82.1482 34.865C86.7682 33.725 94.4232 32.365 104.648 32.365C114.873 32.365 122.553 33.725 127.173 34.865C128.324 35.1559 129.341 35.8307 130.057 36.778C130.772 37.7253 131.143 38.8884 131.108 40.075L128.798 114.825C128.764 115.928 128.38 116.991 127.703 117.862C127.025 118.732 126.089 119.366 125.028 119.67C118.419 121.539 111.581 122.475 104.713 122.45ZM104.713 32.865C94.5182 32.865 86.9032 34.215 82.3132 35.365C81.267 35.6184 80.3391 36.2225 79.6841 37.0767C79.029 37.931 78.6864 38.9838 78.7132 40.06L81.0232 114.81C81.0537 115.807 81.4005 116.769 82.0135 117.556C82.6264 118.344 83.4738 118.916 84.4332 119.19C97.6818 122.875 111.685 122.875 124.933 119.19C125.892 118.914 126.738 118.342 127.351 117.555C127.964 116.768 128.311 115.807 128.343 114.81L130.653 40.06C130.686 38.9874 130.351 37.9358 129.705 37.0792C129.058 36.2227 128.139 35.6126 127.098 35.35C122.503 34.215 114.888 32.865 104.713 32.865Z" fill="#231F20"/>
<path d="M122.273 42.0452H87.1033C85.5542 42.0452 84.2983 43.301 84.2983 44.8502V70.5552C84.2983 72.1043 85.5542 73.3602 87.1033 73.3602H122.273C123.822 73.3602 125.078 72.1043 125.078 70.5552V44.8502C125.078 43.301 123.822 42.0452 122.273 42.0452Z" fill="#86C2C5"/>
<path d="M104.088 79.1501C95.8996 79.1184 87.7196 78.6176 79.5883 77.6501C79.522 77.6415 79.4618 77.6069 79.421 77.5539C79.3802 77.501 79.3621 77.4339 79.3708 77.3676C79.3794 77.3013 79.414 77.2412 79.467 77.2004C79.5199 77.1596 79.587 77.1415 79.6533 77.1501C79.9783 77.1951 112.563 81.3751 129.698 75.5401C129.758 75.5274 129.821 75.5371 129.874 75.5673C129.927 75.5975 129.967 75.6462 129.987 75.7041C130.007 75.762 130.004 75.8252 129.981 75.8816C129.957 75.938 129.913 75.9837 129.858 76.0101C122.763 78.4351 113.068 79.1501 104.088 79.1501Z" fill="#231F20"/>
<path d="M95.013 108.74H87.048C86.5261 108.74 86.103 109.163 86.103 109.685V112.715C86.103 113.237 86.5261 113.66 87.048 113.66H95.013C95.5349 113.66 95.958 113.237 95.958 112.715V109.685C95.958 109.163 95.5349 108.74 95.013 108.74Z" fill="#86C2C5"/>
<path d="M95.008 113.91H87.048C86.7311 113.91 86.4271 113.784 86.203 113.56C85.9789 113.336 85.853 113.032 85.853 112.715V109.685C85.853 109.368 85.9789 109.064 86.203 108.84C86.4271 108.616 86.7311 108.49 87.048 108.49H95.008C95.1658 108.489 95.3223 108.519 95.4684 108.578C95.6145 108.638 95.7475 108.725 95.8595 108.836C95.9715 108.948 96.0604 109.08 96.1211 109.225C96.1818 109.371 96.213 109.527 96.213 109.685V112.715C96.213 112.873 96.1818 113.029 96.1211 113.175C96.0604 113.32 95.9715 113.452 95.8595 113.564C95.7475 113.675 95.6145 113.762 95.4684 113.822C95.3223 113.881 95.1658 113.911 95.008 113.91ZM87.048 108.99C86.8637 108.99 86.6869 109.063 86.5566 109.194C86.4262 109.324 86.353 109.501 86.353 109.685V112.715C86.353 112.899 86.4262 113.076 86.5566 113.206C86.6869 113.337 86.8637 113.41 87.048 113.41H95.008C95.1924 113.41 95.3691 113.337 95.4995 113.206C95.6298 113.076 95.703 112.899 95.703 112.715V109.685C95.703 109.501 95.6298 109.324 95.4995 109.194C95.3691 109.063 95.1924 108.99 95.008 108.99H87.048Z" fill="#231F20"/>
<path d="M108.673 108.74H100.708C100.186 108.74 99.7632 109.163 99.7632 109.685V112.715C99.7632 113.237 100.186 113.66 100.708 113.66H108.673C109.195 113.66 109.618 113.237 109.618 112.715V109.685C109.618 109.163 109.195 108.74 108.673 108.74Z" fill="#D1D3D4"/>
<path d="M108.673 113.91H100.713C100.396 113.91 100.092 113.784 99.8681 113.56C99.644 113.336 99.5181 113.032 99.5181 112.715V109.685C99.5181 109.368 99.644 109.064 99.8681 108.84C100.092 108.616 100.396 108.49 100.713 108.49H108.678C108.995 108.49 109.299 108.616 109.523 108.84C109.747 109.064 109.873 109.368 109.873 109.685V112.715C109.873 112.872 109.842 113.028 109.782 113.173C109.721 113.319 109.633 113.451 109.521 113.562C109.41 113.673 109.277 113.761 109.132 113.82C108.986 113.88 108.83 113.911 108.673 113.91ZM100.713 108.99C100.621 108.989 100.53 109.007 100.446 109.041C100.361 109.076 100.283 109.127 100.218 109.192C100.153 109.256 100.102 109.333 100.066 109.418C100.031 109.503 100.013 109.593 100.013 109.685V112.715C100.013 112.899 100.086 113.076 100.217 113.206C100.347 113.337 100.524 113.41 100.708 113.41H108.673C108.857 113.41 109.034 113.337 109.165 113.206C109.295 113.076 109.368 112.899 109.368 112.715V109.685C109.368 109.501 109.295 109.324 109.165 109.194C109.034 109.063 108.857 108.99 108.673 108.99H100.713Z" fill="#231F20"/>
<path d="M122.333 108.74H114.368C113.846 108.74 113.423 109.163 113.423 109.685V112.715C113.423 113.237 113.846 113.66 114.368 113.66H122.333C122.855 113.66 123.278 113.237 123.278 112.715V109.685C123.278 109.163 122.855 108.74 122.333 108.74Z" fill="#86C2C5"/>
<path d="M122.333 113.91H114.368C114.051 113.91 113.747 113.784 113.523 113.56C113.299 113.336 113.173 113.032 113.173 112.715V109.685C113.173 109.368 113.299 109.064 113.523 108.84C113.747 108.616 114.051 108.49 114.368 108.49H122.333C122.65 108.49 122.954 108.616 123.178 108.84C123.402 109.064 123.528 109.368 123.528 109.685V112.715C123.528 113.032 123.402 113.336 123.178 113.56C122.954 113.784 122.65 113.91 122.333 113.91ZM114.368 108.99C114.184 108.99 114.007 109.063 113.877 109.194C113.747 109.324 113.673 109.501 113.673 109.685V112.715C113.673 112.899 113.747 113.076 113.877 113.206C114.007 113.337 114.184 113.41 114.368 113.41H122.333C122.518 113.41 122.694 113.337 122.825 113.206C122.955 113.076 123.028 112.899 123.028 112.715V109.685C123.028 109.501 122.955 109.324 122.825 109.194C122.694 109.063 122.518 108.99 122.333 108.99H114.368Z" fill="#231F20"/>
<path d="M95.008 106.035H87.048C86.7311 106.035 86.4271 105.909 86.203 105.685C85.9789 105.461 85.853 105.157 85.853 104.84V101.81C85.853 101.493 85.9789 101.189 86.203 100.965C86.4271 100.741 86.7311 100.615 87.048 100.615H95.008C95.325 100.615 95.6289 100.741 95.853 100.965C96.0771 101.189 96.203 101.493 96.203 101.81V104.84C96.203 105.157 96.0771 105.461 95.853 105.685C95.6289 105.909 95.325 106.035 95.008 106.035ZM87.048 101.115C86.8637 101.115 86.6869 101.188 86.5566 101.319C86.4262 101.449 86.353 101.626 86.353 101.81V104.84C86.353 105.024 86.4262 105.201 86.5566 105.331C86.6869 105.462 86.8637 105.535 87.048 105.535H95.008C95.1924 105.535 95.3691 105.462 95.4995 105.331C95.6298 105.201 95.703 105.024 95.703 104.84V101.81C95.703 101.626 95.6298 101.449 95.4995 101.319C95.3691 101.188 95.1924 101.115 95.008 101.115H87.048Z" fill="#231F20"/>
<path d="M108.673 106.035H100.713C100.396 106.035 100.092 105.909 99.8681 105.685C99.644 105.461 99.5181 105.157 99.5181 104.84V101.81C99.5181 101.493 99.644 101.189 99.8681 100.965C100.092 100.741 100.396 100.615 100.713 100.615H108.678C108.995 100.615 109.299 100.741 109.523 100.965C109.747 101.189 109.873 101.493 109.873 101.81V104.84C109.873 104.997 109.842 105.153 109.782 105.298C109.721 105.444 109.633 105.576 109.521 105.687C109.41 105.798 109.277 105.886 109.132 105.945C108.986 106.005 108.83 106.036 108.673 106.035ZM100.713 101.115C100.529 101.115 100.352 101.188 100.222 101.319C100.091 101.449 100.018 101.626 100.018 101.81V104.84C100.018 105.024 100.091 105.201 100.222 105.331C100.352 105.462 100.529 105.535 100.713 105.535H108.678C108.862 105.535 109.039 105.462 109.17 105.331C109.3 105.201 109.373 105.024 109.373 104.84V101.81C109.373 101.626 109.3 101.449 109.17 101.319C109.039 101.188 108.862 101.115 108.678 101.115H100.713Z" fill="#231F20"/>
<path d="M122.333 106.035H114.368C114.051 106.035 113.747 105.909 113.523 105.685C113.299 105.461 113.173 105.157 113.173 104.84V101.81C113.173 101.493 113.299 101.189 113.523 100.965C113.747 100.741 114.051 100.615 114.368 100.615H122.333C122.65 100.615 122.954 100.741 123.178 100.965C123.402 101.189 123.528 101.493 123.528 101.81V104.84C123.528 105.157 123.402 105.461 123.178 105.685C122.954 105.909 122.65 106.035 122.333 106.035ZM114.368 101.115C114.184 101.115 114.007 101.188 113.877 101.319C113.747 101.449 113.673 101.626 113.673 101.81V104.84C113.673 105.024 113.747 105.201 113.877 105.331C114.007 105.462 114.184 105.535 114.368 105.535H122.333C122.518 105.535 122.694 105.462 122.825 105.331C122.955 105.201 123.028 105.024 123.028 104.84V101.81C123.028 101.626 122.955 101.449 122.825 101.319C122.694 101.188 122.518 101.115 122.333 101.115H114.368Z" fill="#231F20"/>
<path d="M95.008 98.185H87.048C86.7311 98.185 86.4271 98.0591 86.203 97.835C85.9789 97.6109 85.853 97.307 85.853 96.99V93.935C85.853 93.6181 85.9789 93.3141 86.203 93.09C86.4271 92.8659 86.7311 92.74 87.048 92.74H95.008C95.1658 92.7387 95.3223 92.7686 95.4684 92.8281C95.6145 92.8876 95.7475 92.9754 95.8595 93.0865C95.9715 93.1976 96.0604 93.3298 96.1211 93.4754C96.1818 93.621 96.213 93.7773 96.213 93.935V96.965C96.2164 97.1249 96.1876 97.2838 96.1284 97.4324C96.0693 97.5809 95.9809 97.7161 95.8685 97.8298C95.7561 97.9436 95.6221 98.0336 95.4743 98.0947C95.3265 98.1557 95.1679 98.1864 95.008 98.185ZM87.048 93.265C86.8637 93.265 86.6869 93.3383 86.5566 93.4686C86.4262 93.5989 86.353 93.7757 86.353 93.96V96.99C86.353 97.1744 86.4262 97.3511 86.5566 97.4815C86.6869 97.6118 86.8637 97.685 87.048 97.685H95.008C95.1924 97.685 95.3691 97.6118 95.4995 97.4815C95.6298 97.3511 95.703 97.1744 95.703 96.99V93.935C95.703 93.7507 95.6298 93.5739 95.4995 93.4436C95.3691 93.3133 95.1924 93.24 95.008 93.24L87.048 93.265Z" fill="#231F20"/>
<path d="M108.673 98.185H100.713C100.396 98.185 100.092 98.0591 99.8681 97.835C99.644 97.6109 99.5181 97.3069 99.5181 96.99V93.935C99.5181 93.6181 99.644 93.3141 99.8681 93.09C100.092 92.8659 100.396 92.74 100.713 92.74H108.678C108.995 92.74 109.299 92.8659 109.523 93.09C109.747 93.3141 109.873 93.6181 109.873 93.935V96.965C109.876 97.1244 109.848 97.2829 109.789 97.4311C109.73 97.5794 109.642 97.7143 109.53 97.828C109.418 97.9417 109.285 98.0318 109.138 98.0932C108.991 98.1545 108.833 98.1857 108.673 98.185ZM100.713 93.24C100.529 93.24 100.352 93.3132 100.222 93.4436C100.091 93.5739 100.018 93.7507 100.018 93.935V96.965C100.015 97.0583 100.03 97.1514 100.064 97.2386C100.097 97.3259 100.148 97.4055 100.213 97.4727C100.277 97.5399 100.355 97.5933 100.441 97.6298C100.527 97.6663 100.62 97.6851 100.713 97.685H108.678C108.862 97.685 109.039 97.6118 109.17 97.4814C109.3 97.3511 109.373 97.1743 109.373 96.99V93.935C109.373 93.7507 109.3 93.5739 109.17 93.4436C109.039 93.3132 108.862 93.24 108.678 93.24H100.713Z" fill="#231F20"/>
<path d="M122.333 98.185H114.368C114.051 98.185 113.747 98.0591 113.523 97.835C113.299 97.6109 113.173 97.3069 113.173 96.99V93.935C113.173 93.6181 113.299 93.3141 113.523 93.09C113.747 92.8659 114.051 92.74 114.368 92.74H122.333C122.65 92.74 122.954 92.8659 123.178 93.09C123.402 93.3141 123.528 93.6181 123.528 93.935V96.965C123.532 97.124 123.503 97.2821 123.445 97.43C123.386 97.5779 123.299 97.7126 123.187 97.8262C123.076 97.9398 122.943 98.0301 122.796 98.0917C122.65 98.1533 122.492 98.185 122.333 98.185ZM114.368 93.265C114.184 93.265 114.007 93.3382 113.877 93.4686C113.747 93.5989 113.673 93.7757 113.673 93.96V96.99C113.673 97.1743 113.747 97.3511 113.877 97.4814C114.007 97.6118 114.184 97.685 114.368 97.685H122.333C122.518 97.685 122.694 97.6118 122.825 97.4814C122.955 97.3511 123.028 97.1743 123.028 96.99V93.935C123.028 93.7507 122.955 93.5739 122.825 93.4436C122.694 93.3132 122.518 93.24 122.333 93.24L114.368 93.265Z" fill="#231F20"/>
<path d="M95.008 90.2251H87.048C86.7315 90.2237 86.4283 90.0974 86.2045 89.8736C85.9807 89.6498 85.8543 89.3466 85.853 89.0301V85.995C85.853 85.6781 85.9789 85.3742 86.203 85.1501C86.4271 84.9259 86.7311 84.8 87.048 84.8H95.008C95.325 84.8 95.6289 84.9259 95.853 85.1501C96.0771 85.3742 96.203 85.6781 96.203 85.995V89.0301C96.2017 89.3466 96.0754 89.6498 95.8516 89.8736C95.6277 90.0974 95.3246 90.2237 95.008 90.2251ZM87.048 85.3C86.8637 85.3 86.6869 85.3733 86.5566 85.5036C86.4262 85.6339 86.353 85.8107 86.353 85.995V89.0301C86.353 89.2144 86.4262 89.3912 86.5566 89.5215C86.6869 89.6518 86.8637 89.7251 87.048 89.7251H95.008C95.1924 89.7251 95.3691 89.6518 95.4995 89.5215C95.6298 89.3912 95.703 89.2144 95.703 89.0301V85.995C95.703 85.8107 95.6298 85.6339 95.4995 85.5036C95.3691 85.3733 95.1924 85.3 95.008 85.3H87.048Z" fill="#231F20"/>
<path d="M108.673 90.2251H100.713C100.397 90.2237 100.093 90.0974 99.8695 89.8736C99.6457 89.6498 99.5194 89.3466 99.5181 89.0301V85.995C99.5181 85.6781 99.644 85.3742 99.8681 85.1501C100.092 84.9259 100.396 84.8 100.713 84.8H108.678C108.995 84.8 109.299 84.9259 109.523 85.1501C109.747 85.3742 109.873 85.6781 109.873 85.995V89.0301C109.872 89.3474 109.745 89.6514 109.52 89.8754C109.295 90.0993 108.99 90.2251 108.673 90.2251ZM100.713 85.3C100.529 85.3 100.352 85.3733 100.222 85.5036C100.091 85.6339 100.018 85.8107 100.018 85.995V89.0301C100.018 89.2144 100.091 89.3912 100.222 89.5215C100.352 89.6518 100.529 89.7251 100.713 89.7251H108.678C108.862 89.7237 109.038 89.6501 109.168 89.52C109.298 89.39 109.372 89.214 109.373 89.0301V85.995C109.372 85.8111 109.298 85.6351 109.168 85.5051C109.038 85.375 108.862 85.3014 108.678 85.3H100.713Z" fill="#231F20"/>
<path d="M122.333 90.2251H114.368C114.052 90.2237 113.749 90.0974 113.525 89.8736C113.301 89.6498 113.175 89.3466 113.173 89.0301V85.995C113.173 85.6781 113.299 85.3742 113.523 85.1501C113.747 84.9259 114.051 84.8 114.368 84.8H122.333C122.65 84.8 122.954 84.9259 123.178 85.1501C123.402 85.3742 123.528 85.6781 123.528 85.995V89.0301C123.527 89.3466 123.401 89.6498 123.177 89.8736C122.953 90.0974 122.65 90.2237 122.333 90.2251ZM114.368 85.3C114.184 85.3014 114.008 85.375 113.878 85.5051C113.748 85.6351 113.675 85.8111 113.673 85.995V89.0301C113.675 89.214 113.748 89.39 113.878 89.52C114.008 89.6501 114.184 89.7237 114.368 89.7251H122.333C122.518 89.7251 122.694 89.6518 122.825 89.5215C122.955 89.3912 123.028 89.2144 123.028 89.0301V85.995C123.028 85.8107 122.955 85.6339 122.825 85.5036C122.694 85.3733 122.518 85.3 122.333 85.3H114.368Z" fill="#231F20"/>
<path d="M120.893 37.625V13.975L117.938 16.365L115.438 13.69L112.328 16.225L109.853 13.27L107.063 16.155L104.503 13.27L101.828 16.04L99.1083 13.27L96.7633 15.92L93.5283 13.685L91.9433 15.685L88.4883 13.25V37.625H120.893Z" fill="white"/>
<path d="M120.893 37.8751H88.4883C88.422 37.8751 88.3584 37.8487 88.3115 37.8019C88.2647 37.755 88.2383 37.6914 88.2383 37.6251V13.2701C88.2375 13.2244 88.2498 13.1794 88.2737 13.1404C88.2976 13.1014 88.3322 13.0701 88.3733 13.0501C88.4113 13.0255 88.4556 13.0125 88.5008 13.0125C88.546 13.0125 88.5903 13.0255 88.6283 13.0501L91.8933 15.3501L93.3283 13.5251C93.3671 13.4741 93.4241 13.4399 93.4873 13.4297C93.5506 13.4195 93.6154 13.4339 93.6683 13.4701L96.7133 15.5851L98.9083 13.0851C98.9305 13.0589 98.958 13.0377 98.9891 13.023C99.0201 13.0084 99.054 13.0005 99.0883 13.0001C99.1227 12.9992 99.1568 13.0054 99.1886 13.0183C99.2205 13.0312 99.2493 13.0505 99.2733 13.0751L101.808 15.6851L104.308 13.1001C104.358 13.0519 104.424 13.025 104.493 13.0251C104.528 13.0249 104.562 13.0324 104.593 13.0471C104.624 13.0618 104.652 13.0833 104.673 13.1101L107.053 15.7951L109.658 13.1001C109.683 13.0749 109.713 13.0552 109.745 13.0423C109.778 13.0294 109.813 13.0235 109.848 13.0251C109.883 13.0268 109.917 13.0357 109.948 13.0512C109.979 13.0667 110.006 13.0884 110.028 13.1151L112.343 15.8801L115.263 13.5051C115.31 13.4622 115.37 13.4384 115.433 13.4384C115.496 13.4384 115.557 13.4622 115.603 13.5051L117.963 16.0051L120.743 13.7601C120.78 13.731 120.824 13.7129 120.871 13.7077C120.917 13.7026 120.965 13.7106 121.007 13.731C121.049 13.7513 121.085 13.7831 121.11 13.8227C121.135 13.8624 121.148 13.9082 121.148 13.9551V37.6051C121.151 37.64 121.147 37.6751 121.135 37.7081C121.123 37.7411 121.105 37.7714 121.081 37.7968C121.057 37.8223 121.028 37.8424 120.995 37.8559C120.963 37.8693 120.928 37.8759 120.893 37.8751ZM88.7383 37.3751H120.643V14.5001L118.093 16.5601C118.047 16.603 117.986 16.6268 117.923 16.6268C117.86 16.6268 117.8 16.603 117.753 16.5601L115.393 14.0601L112.463 16.4451C112.412 16.4865 112.347 16.5061 112.281 16.4995C112.216 16.493 112.155 16.4608 112.113 16.4101L109.818 13.6701L107.213 16.3301C107.189 16.3544 107.16 16.3735 107.128 16.3864C107.097 16.3993 107.063 16.4057 107.028 16.4051C106.993 16.4053 106.958 16.3979 106.926 16.3832C106.894 16.3685 106.866 16.3469 106.843 16.3201L104.463 13.6401L101.963 16.2101C101.942 16.2368 101.914 16.258 101.883 16.2719C101.852 16.2858 101.818 16.2921 101.783 16.2901C101.716 16.2879 101.652 16.2612 101.603 16.2151L99.0733 13.6351L96.9083 16.0851C96.8672 16.1301 96.8113 16.1589 96.7507 16.1662C96.6902 16.1736 96.629 16.159 96.5783 16.1251L93.5533 14.0301L92.1133 15.8601C92.0738 15.9103 92.0165 15.9435 91.9533 15.9528C91.89 15.9621 91.8256 15.9468 91.7733 15.9101L88.7133 13.7501L88.7383 37.3751Z" fill="#231F20"/>
<path d="M85.583 37.625C86.083 37.485 123.793 37.625 123.793 37.625H85.583Z" fill="white"/>
<path d="M85.568 37.88C85.5144 37.8778 85.4628 37.8588 85.4206 37.8255C85.3784 37.7923 85.3477 37.7466 85.333 37.695C85.3248 37.6625 85.323 37.6286 85.3279 37.5955C85.3327 37.5623 85.344 37.5304 85.3612 37.5016C85.3784 37.4728 85.4011 37.4477 85.428 37.4277C85.4549 37.4076 85.4855 37.3931 85.518 37.385C86.018 37.24 117.518 37.35 123.798 37.385C123.864 37.385 123.928 37.4113 123.975 37.4582C124.022 37.5051 124.048 37.5687 124.048 37.635C124.048 37.7013 124.022 37.7649 123.975 37.8117C123.928 37.8586 123.864 37.885 123.798 37.885C110.923 37.835 86.373 37.775 85.638 37.885L85.568 37.88Z" fill="#231F20"/>
<path d="M116.123 21.9751H91.6683C91.6296 21.9861 91.5889 21.9881 91.5493 21.9807C91.5098 21.9733 91.4725 21.9569 91.4403 21.9327C91.4082 21.9084 91.3821 21.8771 91.3642 21.841C91.3462 21.805 91.3369 21.7653 91.3369 21.7251C91.3369 21.6848 91.3462 21.6452 91.3642 21.6091C91.3821 21.5731 91.4082 21.5418 91.4403 21.5175C91.4725 21.4933 91.5098 21.4768 91.5493 21.4695C91.5889 21.4621 91.6296 21.464 91.6683 21.4751H116.123C116.178 21.4906 116.225 21.5234 116.259 21.5685C116.294 21.6136 116.312 21.6686 116.312 21.7251C116.312 21.7816 116.294 21.8366 116.259 21.8817C116.225 21.9268 116.178 21.9596 116.123 21.9751Z" fill="#D1D3D4"/>
<path d="M109.808 27.4302H91.6683C91.6296 27.4412 91.5889 27.4431 91.5493 27.4358C91.5098 27.4284 91.4725 27.412 91.4403 27.3877C91.4082 27.3635 91.3821 27.3321 91.3642 27.2961C91.3462 27.2601 91.3369 27.2204 91.3369 27.1802C91.3369 27.1399 91.3462 27.1002 91.3642 27.0642C91.3821 27.0282 91.4082 26.9968 91.4403 26.9726C91.4725 26.9484 91.5098 26.9319 91.5493 26.9246C91.5889 26.9172 91.6296 26.9191 91.6683 26.9302H109.808C109.847 26.9191 109.888 26.9172 109.927 26.9246C109.967 26.9319 110.004 26.9484 110.036 26.9726C110.068 26.9968 110.095 27.0282 110.112 27.0642C110.13 27.1002 110.14 27.1399 110.14 27.1802C110.14 27.2204 110.13 27.2601 110.112 27.2961C110.095 27.3321 110.068 27.3635 110.036 27.3877C110.004 27.412 109.967 27.4284 109.927 27.4358C109.888 27.4431 109.847 27.4412 109.808 27.4302Z" fill="#D1D3D4"/>
<path d="M112.813 32.885H91.6683C91.6296 32.8961 91.5889 32.898 91.5493 32.8906C91.5098 32.8832 91.4725 32.8668 91.4403 32.8426C91.4082 32.8183 91.3821 32.787 91.3642 32.751C91.3462 32.7149 91.3369 32.6752 91.3369 32.635C91.3369 32.5948 91.3462 32.5551 91.3642 32.519C91.3821 32.483 91.4082 32.4517 91.4403 32.4274C91.4725 32.4032 91.5098 32.3868 91.5493 32.3794C91.5889 32.372 91.6296 32.3739 91.6683 32.385H112.813C112.852 32.3739 112.893 32.372 112.932 32.3794C112.972 32.3868 113.009 32.4032 113.041 32.4274C113.073 32.4517 113.1 32.483 113.117 32.519C113.135 32.5551 113.145 32.5948 113.145 32.635C113.145 32.6752 113.135 32.7149 113.117 32.751C113.1 32.787 113.073 32.8183 113.041 32.8426C113.009 32.8668 112.972 32.8832 112.932 32.8906C112.893 32.898 112.852 32.8961 112.813 32.885Z" fill="#D1D3D4"/>
<path d="M135.273 39.9751H132.983V116.68H135.273V39.9751Z" fill="#D1D3D4"/>
<path d="M135.273 116.935H132.983C132.917 116.935 132.854 116.909 132.807 116.862C132.76 116.815 132.733 116.751 132.733 116.685V39.9751C132.733 39.9088 132.76 39.8452 132.807 39.7983C132.854 39.7514 132.917 39.7251 132.983 39.7251H135.273C135.339 39.7264 135.402 39.7531 135.449 39.7997C135.495 39.8463 135.522 39.9092 135.523 39.9751V116.685C135.522 116.751 135.495 116.814 135.449 116.86C135.402 116.907 135.339 116.934 135.273 116.935ZM133.233 116.435H135.023V40.2251H133.213L133.233 116.435Z" fill="#231F20"/>
</svg>
