<svg width="17" height="16" viewBox="0 0 17 16" fill="none" xmlns="http://www.w3.org/2000/svg">
<path d="M15.25 7.25H1.75V5H15.25V7.25Z" fill="#264D4F"/>
<path opacity="0.4" d="M1.75 4.25C1.75 3.42969 2.40625 2.75 3.25 2.75H13.75C14.5703 2.75 15.25 3.42969 15.25 4.25V5H1.75V4.25ZM1.75 7.25H15.25V11.75C15.25 12.5938 14.5703 13.25 13.75 13.25H3.25C2.40625 13.25 1.75 12.5938 1.75 11.75V7.25ZM4 10.625C4 10.8359 4.16406 11 4.375 11H5.875C6.0625 11 6.25 10.8359 6.25 10.625C6.25 10.4375 6.0625 10.25 5.875 10.25H4.375C4.16406 10.25 4 10.4375 4 10.625ZM7 10.625C7 10.8359 7.16406 11 7.375 11H10.375C10.5625 11 10.75 10.8359 10.75 10.625C10.75 10.4375 10.5625 10.25 10.375 10.25H7.375C7.16406 10.25 7 10.4375 7 10.625Z" fill="#264D4F"/>
</svg>
