<svg width="19" height="17" viewBox="0 0 19 17" fill="none" xmlns="http://www.w3.org/2000/svg">
<path d="M7.5 8.5C8.59375 8.5 9.5 7.625 9.5 6.5C9.5 6.28125 9.4375 6.09375 9.375 5.875C9.3125 5.71875 9.4375 5.5 9.625 5.5C10.875 5.5625 12.0312 6.4375 12.375 7.75C12.8125 9.34375 11.875 10.9688 10.25 11.4062C8.65625 11.8438 7 10.875 6.59375 9.28125C6.53125 9.0625 6.5 8.84375 6.5 8.65625C6.46875 8.46875 6.6875 8.34375 6.84375 8.40625C7.0625 8.46875 7.25 8.5 7.5 8.5Z" fill="black"/>
<path opacity="0.4" d="M0.5 8.5C0.5 8.375 0.5 8.25 0.5625 8.125C1.03125 7 2 5.375 3.46875 4.03125C4.9375 2.65625 6.96875 1.5 9.5 1.5C12 1.5 14.0312 2.65625 15.5 4.03125C16.9688 5.375 17.9375 7 18.4062 8.125C18.4688 8.25 18.5 8.375 18.5 8.5C18.5 8.65625 18.4688 8.78125 18.4062 8.90625C17.9375 10 16.9688 11.625 15.5 13C14.0312 14.375 12 15.5 9.5 15.5C6.96875 15.5 4.9375 14.375 3.46875 13C2 11.625 1.03125 10 0.5625 8.90625C0.5 8.78125 0.5 8.65625 0.5 8.5ZM14 8.5C14 6.90625 13.125 5.4375 11.75 4.625C10.3438 3.8125 8.625 3.8125 7.25 4.625C5.84375 5.4375 5 6.90625 5 8.5C5 10.125 5.84375 11.5938 7.25 12.4062C8.625 13.2188 10.3438 13.2188 11.75 12.4062C13.125 11.5938 14 10.125 14 8.5Z" fill="black"/>
</svg>
