<svg width="19" height="16" viewBox="0 0 19 16" fill="none" xmlns="http://www.w3.org/2000/svg">
<path d="M18.5 7H0.5V4H18.5V7Z" fill="#FB7429"/>
<path opacity="0.4" d="M0.5 3C0.5 1.90625 1.375 1 2.5 1H16.5C17.5938 1 18.5 1.90625 18.5 3V4H0.5V3ZM0.5 7H18.5V13C18.5 14.125 17.5938 15 16.5 15H2.5C1.375 15 0.5 14.125 0.5 13V7ZM3.5 11.5C3.5 11.7812 3.71875 12 4 12H6C6.25 12 6.5 11.7812 6.5 11.5C6.5 11.25 6.25 11 6 11H4C3.71875 11 3.5 11.25 3.5 11.5ZM7.5 11.5C7.5 11.7812 7.71875 12 8 12H12C12.25 12 12.5 11.7812 12.5 11.5C12.5 11.25 12.25 11 12 11H8C7.71875 11 7.5 11.25 7.5 11.5Z" fill="#FB7429"/>
</svg>
