<svg width="17" height="16" viewBox="0 0 17 16" fill="none" xmlns="http://www.w3.org/2000/svg">
<path d="M7 4.25H10C10.1875 4.25 10.375 4.4375 10.375 4.625C10.375 4.83594 10.1875 5 10 5H7C6.78906 5 6.625 4.83594 6.625 4.625C6.625 4.4375 6.78906 4.25 7 4.25ZM8.96875 7.0625V7.39062C9.13281 7.41406 9.29688 7.46094 9.46094 7.50781C9.69531 7.57812 9.85938 7.8125 9.78906 8.07031C9.71875 8.32812 9.46094 8.46875 9.20312 8.39844C8.94531 8.32812 8.71094 8.28125 8.47656 8.28125C8.28906 8.28125 8.10156 8.32812 7.98438 8.39844C7.86719 8.46875 7.82031 8.53906 7.82031 8.60938C7.82031 8.65625 7.84375 8.70312 7.96094 8.77344C8.10156 8.86719 8.3125 8.9375 8.61719 9.03125H8.64062C8.89844 9.10156 9.22656 9.21875 9.50781 9.38281C9.8125 9.57031 10.0703 9.875 10.0703 10.3438C10.0938 10.8359 9.83594 11.2109 9.50781 11.3984C9.32031 11.5156 9.13281 11.5859 8.94531 11.6094V11.9375C8.94531 12.1953 8.73438 12.4062 8.47656 12.4062C8.21875 12.4062 8.00781 12.1953 8.00781 11.9375V11.6094C7.77344 11.5391 7.5625 11.4688 7.35156 11.3984C7.30469 11.375 7.25781 11.375 7.21094 11.3516C6.97656 11.2812 6.83594 11 6.92969 10.7656C7 10.5078 7.25781 10.3906 7.51562 10.4609C7.5625 10.4844 7.63281 10.5078 7.67969 10.5312C8.00781 10.625 8.24219 10.7188 8.5 10.7188C8.71094 10.7188 8.89844 10.6953 9.01562 10.6016C9.10938 10.5547 9.15625 10.4844 9.13281 10.3672C9.13281 10.2969 9.13281 10.25 9.01562 10.1797C8.85156 10.0859 8.64062 10.0156 8.35938 9.92188H8.3125C8.05469 9.82812 7.72656 9.73438 7.46875 9.59375C7.1875 9.40625 6.90625 9.10156 6.90625 8.63281C6.88281 8.14062 7.16406 7.78906 7.49219 7.60156C7.65625 7.50781 7.84375 7.4375 8.03125 7.39062V7.0625C8.03125 6.80469 8.24219 6.59375 8.5 6.59375C8.75781 6.59375 8.96875 6.80469 8.96875 7.0625Z" fill="#264D4F"/>
<path opacity="0.4" d="M2.5 11.75C2.5 7.88281 5.35938 6.05469 6.69531 5.21094C6.78906 5.14062 6.90625 5.07031 7 5H10C10.0703 5.07031 10.1875 5.14062 10.3047 5.21094C11.6172 6.05469 14.5 7.88281 14.5 11.75C14.5 12.9922 13.4922 14 12.25 14H4.75C3.50781 14 2.5 12.9922 2.5 11.75ZM5.875 2.58594C5.71094 2.35156 5.89844 2 6.17969 2H10.7969C11.0781 2 11.2656 2.35156 11.1016 2.58594L10 4.25H7L5.875 2.58594ZM6.90625 8.53906C6.90625 8.5625 6.90625 8.58594 6.90625 8.58594C6.90625 8.60938 6.90625 8.63281 6.90625 8.63281C6.90625 9.10156 7.1875 9.40625 7.46875 9.59375C7.72656 9.75781 8.05469 9.85156 8.3125 9.92188H8.35938C8.64062 10.0156 8.85156 10.0859 9.01562 10.1797C9.13281 10.25 9.13281 10.2969 9.13281 10.3672C9.15625 10.4844 9.10938 10.5547 9.01562 10.625C8.89844 10.6953 8.71094 10.7422 8.5 10.7422C8.24219 10.7188 8.00781 10.6484 7.67969 10.5312C7.63281 10.5078 7.5625 10.4844 7.51562 10.4844C7.25781 10.3906 7 10.5312 6.92969 10.7656C6.83594 11.0234 6.97656 11.2812 7.21094 11.375C7.25781 11.375 7.30469 11.3984 7.35156 11.4219C7.5625 11.4922 7.77344 11.5625 8.03125 11.6094V11.9609C8.03125 12.2188 8.24219 12.4297 8.5 12.4297C8.75781 12.4297 8.96875 12.2188 8.96875 11.9609V11.6328C9.15625 11.5859 9.34375 11.5156 9.50781 11.4219C9.67188 11.3047 9.8125 11.1641 9.92969 11C9.97656 10.9062 10.0234 10.8125 10.0469 10.6953C10.0469 10.6484 10.0703 10.6016 10.0703 10.5312C10.0703 10.5078 10.0703 10.4844 10.0703 10.4609C10.0938 10.4375 10.0938 10.4141 10.0938 10.4141C10.0938 10.3906 10.0938 10.3906 10.0938 10.3672C10.0703 9.89844 9.8125 9.57031 9.50781 9.38281C9.22656 9.21875 8.89844 9.125 8.64062 9.03125H8.61719C8.3125 8.9375 8.10156 8.86719 7.96094 8.79688C7.84375 8.70312 7.84375 8.67969 7.84375 8.63281C7.84375 8.53906 7.86719 8.46875 7.98438 8.42188C8.10156 8.32812 8.28906 8.30469 8.47656 8.30469C8.71094 8.30469 8.94531 8.35156 9.20312 8.42188C9.46094 8.49219 9.71875 8.32812 9.78906 8.09375C9.85938 7.83594 9.69531 7.57812 9.46094 7.50781C9.29688 7.46094 9.13281 7.4375 8.96875 7.39062V7.08594C8.96875 6.82812 8.75781 6.61719 8.5 6.61719C8.24219 6.61719 8.03125 6.82812 8.03125 7.08594V7.41406C7.84375 7.4375 7.65625 7.50781 7.49219 7.60156C7.32812 7.69531 7.1875 7.83594 7.07031 8C7.02344 8.09375 6.97656 8.1875 6.95312 8.28125C6.92969 8.35156 6.90625 8.39844 6.90625 8.44531C6.90625 8.49219 6.90625 8.51562 6.90625 8.53906Z" fill="#264D4F"/>
</svg>
